<svg width="38" height="38" viewBox="0 0 38 38" fill="none" xmlns="http://www.w3.org/2000/svg">
<path d="M18.8299 34.5218C27.4961 34.5218 34.5215 27.4964 34.5215 18.8301C34.5215 10.1638 27.4961 3.13843 18.8299 3.13843C10.1636 3.13843 3.13818 10.1638 3.13818 18.8301C3.13818 27.4964 10.1636 34.5218 18.8299 34.5218Z" stroke="#132F76" stroke-width="2.69" stroke-linecap="round" stroke-linejoin="round"/>
<path d="M18.8299 28.2451C24.0296 28.2451 28.2449 24.0299 28.2449 18.8301C28.2449 13.6303 24.0296 9.41509 18.8299 9.41509C13.6301 9.41509 9.41485 13.6303 9.41485 18.8301C9.41485 24.0299 13.6301 28.2451 18.8299 28.2451Z" stroke="#132F76" stroke-width="2.69" stroke-linecap="round" stroke-linejoin="round"/>
<path d="M18.8299 21.9684C20.5631 21.9684 21.9682 20.5633 21.9682 18.8301C21.9682 17.0968 20.5631 15.6918 18.8299 15.6918C17.0966 15.6918 15.6915 17.0968 15.6915 18.8301C15.6915 20.5633 17.0966 21.9684 18.8299 21.9684Z" stroke="#132F76" stroke-width="2.69" stroke-linecap="round" stroke-linejoin="round"/>
</svg>
