<svg width="24" height="24" viewBox="0 0 24 24" fill="none" xmlns="http://www.w3.org/2000/svg">
<g clip-path="url(#clip0_113_2851)">
<path d="M2.25 5.25V23.25M21.75 5.25V23.25M1.75 0.75H22.25C22.25 0.75 23.25 0.75 23.25 1.75V4.25C23.25 4.25 23.25 5.25 22.25 5.25H1.75C1.75 5.25 0.75 5.25 0.75 4.25V1.75C0.75 1.75 0.75 0.75 1.75 0.75Z" stroke="#132F76" stroke-width="1.5" stroke-linecap="round" stroke-linejoin="round"/>
<path d="M2.25 0.75L6.75 5.25L12 0.75L17.25 5.25L21.75 0.75M12 13.021V19.5M12 19.5L8.25 23.25M12 19.5L15.75 23.25M0.75 23.25H23.25M14.531 14.17L11.116 12.62M8.25 12C8.25 12.3978 8.40804 12.7794 8.68934 13.0607C8.97064 13.342 9.35218 13.5 9.75 13.5C10.1478 13.5 10.5294 13.342 10.8107 13.0607C11.092 12.7794 11.25 12.3978 11.25 12C11.25 11.6022 11.092 11.2206 10.8107 10.9393C10.5294 10.658 10.1478 10.5 9.75 10.5C9.35218 10.5 8.97064 10.658 8.68934 10.9393C8.40804 11.2206 8.25 11.6022 8.25 12Z" stroke="#132F76" stroke-width="1.5" stroke-linecap="round" stroke-linejoin="round"/>
</g>
<defs>
<clipPath id="clip0_113_2851">
<rect width="24" height="24" fill="white"/>
</clipPath>
</defs>
</svg>
