<svg width="24" height="24" viewBox="0 0 24 24" fill="none" xmlns="http://www.w3.org/2000/svg">
<path d="M4.616 21C4.15533 21 3.771 20.846 3.463 20.538C3.155 20.23 3.00067 19.8457 3 19.385V8.61501C3 8.15501 3.15433 7.77101 3.463 7.46301C3.77167 7.15501 4.15567 7.00067 4.615 7.00001H8.885L11.435 4.45001C11.5963 4.28867 11.7847 4.20801 12 4.20801C12.2153 4.20801 12.404 4.28867 12.566 4.45001L15.116 7.00001H19.385C19.845 7.00001 20.2293 7.15434 20.538 7.46301C20.8467 7.77167 21.0007 8.15601 21 8.61601V19.385C21 19.845 20.846 20.2293 20.538 20.538C20.23 20.8467 19.8457 21.0007 19.385 21H4.616ZM4.616 20H19.385C19.5383 20 19.6793 19.936 19.808 19.808C19.9367 19.68 20.0007 19.5387 20 19.384V8.61601C20 8.46201 19.936 8.32067 19.808 8.19201C19.68 8.06334 19.539 7.99934 19.385 8.00001H4.615C4.46167 8.00001 4.32067 8.06401 4.192 8.19201C4.06333 8.32001 3.99933 8.46134 4 8.61601V19.385C4 19.5383 4.064 19.6793 4.192 19.808C4.32 19.9367 4.461 20.0007 4.615 20M11.212 17.039L9.785 15.314C9.69767 15.2187 9.593 15.171 9.471 15.171C9.34967 15.171 9.24533 15.225 9.158 15.333L8.004 16.853C7.896 16.995 7.87933 17.1383 7.954 17.283C8.02867 17.4277 8.14667 17.5 8.308 17.5H15.846C16.008 17.5 16.126 17.4277 16.2 17.283C16.274 17.1383 16.264 16.995 16.17 16.853L14.15 14.14C14.0633 14.0327 13.9557 13.979 13.827 13.979C13.699 13.979 13.5913 14.033 13.504 14.141L11.212 17.039ZM16.923 13C17.237 13 17.5013 12.8927 17.716 12.678C17.9307 12.4633 18.038 12.199 18.038 11.885C18.038 11.571 17.9307 11.3063 17.716 11.091C17.5013 10.8757 17.237 10.7683 16.923 10.769C16.609 10.7697 16.3447 10.877 16.13 11.091C15.9153 11.305 15.808 11.5693 15.808 11.884C15.808 12.1987 15.9153 12.4633 16.13 12.678C16.3447 12.8927 16.609 13 16.923 13ZM10.139 7.00001H13.862L12 5.13901L10.139 7.00001Z" fill="#132F76"/>
</svg>
