<svg width="24" height="24" viewBox="0 0 24 24" fill="none" xmlns="http://www.w3.org/2000/svg">
<path d="M17.1361 4.8L12.5601 0.239996C12.4107 0.0893811 12.2076 0.00426428 11.9955 0.00336415C11.7834 0.00246401 11.5796 0.0858542 11.4289 0.235196L11.4241 0.239996L6.8641 4.8H2.4001C2.18792 4.8 1.98444 4.88428 1.83441 5.03431C1.68438 5.18434 1.6001 5.38782 1.6001 5.6V20C1.6001 20.2122 1.68438 20.4157 1.83441 20.5657C1.98444 20.7157 2.18792 20.8 2.4001 20.8H21.6001C21.8123 20.8 22.0158 20.7157 22.1658 20.5657C22.3158 20.4157 22.4001 20.2122 22.4001 20V5.6C22.4001 5.38782 22.3158 5.18434 22.1658 5.03431C22.0158 4.88428 21.8123 4.8 21.6001 4.8H17.1361ZM12.0001 1.936L14.8641 4.8H9.1361L12.0001 1.936ZM20.8001 19.2H3.2001V6.4H20.8001V19.2ZM8.0001 11.2C7.57575 11.2 7.16879 11.0314 6.86873 10.7314C6.56867 10.4313 6.4001 10.0243 6.4001 9.6C6.4001 9.17565 6.56867 8.76868 6.86873 8.46863C7.16879 8.16857 7.57575 8 8.0001 8C8.42444 8 8.83141 8.16857 9.13147 8.46863C9.43153 8.76868 9.6001 9.17565 9.6001 9.6C9.6001 10.0243 9.43153 10.4313 9.13147 10.7314C8.83141 11.0314 8.42444 11.2 8.0001 11.2ZM19.2001 17.6H7.2001L9.6001 12.8L11.6001 16.8L15.2001 9.6L19.2001 17.6Z" fill="#132F76"/>
</svg>
