<svg width="24" height="24" viewBox="0 0 24 24" fill="none" xmlns="http://www.w3.org/2000/svg">
<path d="M9.26215 21.762L7.35715 21.048C6.74679 20.7486 6.1088 20.5091 5.45215 20.333V2.952H5.92915C6.16715 2.476 6.88115 2.476 7.82915 2.238L9.50015 2H9.73815C10.2141 2 10.2141 2 10.2141 2.476V2.714H16.1671L17.8331 2.476H18.0711C18.3101 2.476 18.3101 2.476 18.5481 2.714V20.814L18.0711 21.052C18.0711 21.052 15.9291 20.337 15.6901 20.337C15.4511 20.337 15.4521 20.099 15.6901 19.861L16.4051 19.623H17.1191V4.143C16.0819 4.12806 15.0465 4.04857 14.0191 3.905L10.6901 3.667H10.2141V21.767C10.2141 22.005 9.97615 22.005 9.73815 22.005C9.50015 22.005 9.50015 22.005 9.26215 21.767" fill="#132F76"/>
</svg>
