<svg width="33" height="33" viewBox="0 0 33 33" fill="none" xmlns="http://www.w3.org/2000/svg">
<path d="M28.2442 28.2455H6.18618C5.43291 28.2455 5.05627 28.2455 4.76856 28.0989C4.51548 27.97 4.30973 27.7642 4.18078 27.5111C4.03418 27.2234 4.03418 26.8468 4.03418 26.0935V4.03552M28.2442 9.41552L20.935 16.7247C20.6687 16.991 20.5355 17.1242 20.382 17.174C20.2469 17.2179 20.1014 17.2179 19.9664 17.174C19.8128 17.1242 19.6797 16.991 19.4133 16.7247L16.9 14.2114C16.6337 13.945 16.5005 13.8119 16.347 13.762C16.2119 13.7181 16.0664 13.7181 15.9314 13.762C15.7778 13.8119 15.6447 13.945 15.3783 14.2114L9.41418 20.1755M28.2442 9.41552H22.8642M28.2442 9.41552V14.7955" stroke="#132F76" stroke-width="2.69" stroke-linecap="round" stroke-linejoin="round"/>
</svg>
