<svg width="24" height="24" viewBox="0 0 24 24" fill="none" xmlns="http://www.w3.org/2000/svg">
<path d="M11 2C6.582 2 3 5.545 3 9.919C3 11.412 3.417 12.809 4.143 14" stroke="#132F76" stroke-width="2" stroke-linecap="round"/>
<path d="M14.5 11V13M17.5 11V13M14.5 3V5M17.5 3V5M13 6.5H11M13 9.5H11M21 6.5H19M21 9.5H19M17 5H15C14.057 5 13.586 5 13.293 5.293C13 5.586 13 6.057 13 7V9C13 9.943 13 10.414 13.293 10.707C13.586 11 14.057 11 15 11H17C17.943 11 18.414 11 18.707 10.707C19 10.414 19 9.943 19 9V7C19 6.057 19 5.586 18.707 5.293C18.414 5 17.943 5 17 5Z" stroke="#132F76" stroke-width="2" stroke-linecap="round" stroke-linejoin="round"/>
<path d="M13.9999 19L13.8699 19.647C13.7299 20.354 13.6589 20.707 13.4999 20.987C13.2549 21.4186 12.8582 21.7436 12.3869 21.899C12.0819 22 11.7199 22 10.9999 22C10.2799 22 9.91788 22 9.61288 21.9C9.14142 21.7444 8.7447 21.4189 8.49988 20.987C8.34088 20.707 8.26988 20.354 8.12988 19.647L7.99988 19M6.38288 17.098C6.29088 16.822 6.24488 16.683 6.24988 16.571C6.25554 16.4552 6.29463 16.3435 6.36242 16.2494C6.43021 16.1554 6.52381 16.083 6.63188 16.041C6.73588 16 6.88188 16 7.17188 16H14.8279C15.1189 16 15.2639 16 15.3679 16.04C15.4761 16.0821 15.5698 16.1546 15.6376 16.2489C15.7054 16.3431 15.7444 16.455 15.7499 16.571C15.7549 16.683 15.7089 16.821 15.6169 17.098C15.4469 17.609 15.3619 17.865 15.2309 18.072C14.9569 18.5046 14.5274 18.8156 14.0309 18.941C13.7929 19 13.5249 19 12.9879 19H9.01188C8.47488 19 8.20588 19 7.96888 18.94C7.47254 18.8149 7.04307 18.5042 6.76888 18.072C6.63788 17.865 6.55288 17.609 6.38288 17.098Z" stroke="#132F76" stroke-width="2"/>
</svg>
