<svg width="24" height="24" viewBox="0 0 24 24" fill="none" xmlns="http://www.w3.org/2000/svg">
<g clip-path="url(#clip0_113_2604)">
<path d="M0.75 23.25V15.25M0.75 15.25H23.25M0.75 15.25V11.75C0.75 11.6174 0.802678 11.4902 0.896447 11.3964C0.990215 11.3027 1.11739 11.25 1.25 11.25H22.75C22.8826 11.25 23.0098 11.3027 23.1036 11.3964C23.1973 11.4902 23.25 11.6174 23.25 11.75V15.25M23.25 15.25H14.25V22.75C14.25 22.8826 14.3027 23.0098 14.3964 23.1036C14.4902 23.1973 14.6174 23.25 14.75 23.25H22.75C22.8826 23.25 23.0098 23.1973 23.1036 23.1036C23.1973 23.0098 23.25 22.8826 23.25 22.75V15.25ZM14.25 19.25H23.25M9.75 8.25V11.25M5.25 0.75H14.25C14.25 0.75 15.75 0.75 15.75 2.25V6.75C15.75 6.75 15.75 8.25 14.25 8.25H5.25C5.25 8.25 3.75 8.25 3.75 6.75V2.25C3.75 2.25 3.75 0.75 5.25 0.75Z" stroke="#132F76" stroke-width="1.5" stroke-linecap="round" stroke-linejoin="round"/>
</g>
<defs>
<clipPath id="clip0_113_2604">
<rect width="24" height="24" fill="white"/>
</clipPath>
</defs>
</svg>
