<svg width="24" height="24" viewBox="0 0 24 24" fill="none" xmlns="http://www.w3.org/2000/svg">
<path d="M4.616 19C4.15533 19 3.771 18.846 3.463 18.538C3.155 18.23 3.00067 17.8453 3 17.384V6.616C3 6.15533 3.15433 5.771 3.463 5.463C3.77167 5.155 4.15567 5.00067 4.615 5H19.385C19.845 5 20.229 5.15433 20.537 5.463C20.845 5.77167 20.9993 6.156 21 6.616V17.385C21 17.845 20.8457 18.2293 20.537 18.538C20.2283 18.8467 19.8443 19.0007 19.385 19H4.616ZM4.616 18H19.385C19.5383 18 19.6793 17.936 19.808 17.808C19.9367 17.68 20.0007 17.5387 20 17.384V8H4V17.385C4 17.5383 4.064 17.6793 4.192 17.808C4.32 17.9367 4.461 18.0007 4.615 18M9.387 13L7.14 10.754C7.04267 10.6567 6.99167 10.5387 6.987 10.4C6.98233 10.2613 7.03567 10.1433 7.147 10.046C7.24367 9.95267 7.36133 9.90833 7.5 9.913C7.63867 9.91767 7.75667 9.96867 7.854 10.066L10.223 12.435C10.3843 12.5963 10.465 12.7847 10.465 13C10.465 13.2153 10.3843 13.404 10.223 13.566L7.834 15.954C7.74067 16.0473 7.62733 16.092 7.494 16.088C7.36067 16.084 7.24467 16.033 7.146 15.935C7.05267 15.8417 7.006 15.73 7.006 15.6C7.006 15.47 7.05267 15.3587 7.146 15.266L9.387 13ZM13 16.5C12.858 16.5 12.739 16.4523 12.643 16.357C12.547 16.2617 12.4993 16.1427 12.5 16C12.5007 15.8573 12.5483 15.7383 12.643 15.643C12.7377 15.5477 12.8567 15.5 13 15.5H17C17.1427 15.5 17.2617 15.5477 17.357 15.643C17.4523 15.7383 17.5 15.8573 17.5 16C17.5 16.1427 17.4523 16.2617 17.357 16.357C17.2617 16.4523 17.1427 16.5 17 16.5H13Z" fill="#132F76"/>
</svg>
