<svg width="24" height="24" viewBox="0 0 24 24" fill="none" xmlns="http://www.w3.org/2000/svg">
<path fill-rule="evenodd" clip-rule="evenodd" d="M4.2002 3.60002C4.2002 3.28176 4.32662 2.97654 4.55167 2.7515C4.77671 2.52645 5.08194 2.40002 5.4002 2.40002H18.6002C18.9185 2.40002 19.2237 2.52645 19.4487 2.7515C19.6738 2.97654 19.8002 3.28176 19.8002 3.60002V12C19.8002 12.3183 19.6738 12.6235 19.4487 12.8486C19.2237 13.0736 18.9185 13.2 18.6002 13.2H5.4002C5.08194 13.2 4.77671 13.0736 4.55167 12.8486C4.32662 12.6235 4.2002 12.3183 4.2002 12V3.60002ZM18.6002 3.60002H5.4002V12H18.6002V3.60002Z" fill="#132F76"/>
<path fill-rule="evenodd" clip-rule="evenodd" d="M2.69999 3.00002C2.69999 2.84089 2.7632 2.68828 2.87573 2.57576C2.98825 2.46324 3.14086 2.40002 3.29999 2.40002H20.7C20.8591 2.40002 21.0117 2.46324 21.1243 2.57576C21.2368 2.68828 21.3 2.84089 21.3 3.00002C21.3 3.15915 21.2368 3.31177 21.1243 3.42429C21.0117 3.53681 20.8591 3.60002 20.7 3.60002H3.29999C3.14086 3.60002 2.98825 3.53681 2.87573 3.42429C2.7632 3.31177 2.69999 3.15915 2.69999 3.00002ZM5.38799 12.1176L3.73199 20.4H20.268L18.612 12.1176L19.788 11.8824L21.444 20.1648C21.4788 20.3389 21.4745 20.5184 21.4315 20.6906C21.3886 20.8628 21.3079 21.0233 21.1955 21.1606C21.083 21.2979 20.9415 21.4085 20.7811 21.4845C20.6207 21.5604 20.4455 21.5999 20.268 21.6H3.73199C3.55452 21.5999 3.37928 21.5604 3.21891 21.4845C3.05853 21.4085 2.917 21.2979 2.80452 21.1606C2.69204 21.0233 2.61141 20.8628 2.56843 20.6906C2.52546 20.5184 2.52121 20.3389 2.55599 20.1648L4.21199 11.8824L5.38799 12.1176Z" fill="#132F76"/>
</svg>
